
<svg xmlns="http://www.w3.org/2000/svg" viewBox="0 0 512 512">
  <rect width="512" height="512" rx="100" fill="#3b82f6"/>
  <path d="M126.5 332.8l-30.8-7.7c-9.6-2.4-16.5-11-16.5-20.9v-28.4c0-10.4 7.5-19.4 17.8-20.9l27.1-4c12.2-1.8 21.1-12.3 21.1-24.6V172c0-39.7 32.2-72 72-72h77.6c39.7 0 72 32.2 72 72v54.2c0 12.4 8.9 22.8 21.1 24.6l27.1 4c10.3 1.5 17.8 10.5 17.8 20.9v28.4c0 9.9-6.9 18.5-16.5 20.9l-30.8 7.7c-13.3 3.3-22.7 15.3-22.7 29v3.1c0 22.1-17.9 40-40 40h-13.5c-22.1 0-40-17.9-40-40v-6.2c0-15.6-8.2-30.1-21.8-38.6l-3.3-2.1c-13.6-8.5-30.9-8.5-44.5 0l-3.3 2.1c-13.6 8.5-21.8 23-21.8 38.6v6.2c0 22.1-17.9 40-40 40h-13.5c-22.1 0-40-17.9-40-40v-3.1c0-13.7-9.4-25.7-22.7-29z" fill="white"/>
  <circle cx="168" cy="380" r="30" fill="#1e293b"/>
  <circle cx="344" cy="380" r="30" fill="#1e293b"/>
</svg>
