
<svg xmlns="http://www.w3.org/2000/svg" viewBox="0 0 512 512">
  <defs>
    <linearGradient id="grad1" x1="0%" y1="0%" x2="100%" y2="100%">
      <stop offset="0%" style="stop-color:#1e293b;stop-opacity:1" />
      <stop offset="100%" style="stop-color:#0f172a;stop-opacity:1" />
    </linearGradient>
  </defs>
  <rect width="512" height="512" rx="120" fill="url(#grad1)"/>
  
  <!-- Car Silhouette -->
  <path d="M418.5 256c-6.8-19.4-23.7-33.8-43.9-37.1l-36.6-6.1-31.5-62.9c-8-16-24.5-26-42.4-26h-116.3c-17.9 0-34.4 10-42.4 26l-31.5 62.9-36.6 6.1c-20.2 3.3-37.1 17.7-43.9 37.1l-11.6 33.1c-2.3 6.6-3.5 13.5-3.5 20.6v58.2c0 23.6 19.1 42.7 42.7 42.7h17.1c23.6 0 42.7-19.1 42.7-42.7v-10.7h230.9v10.7c0 23.6 19.1 42.7 42.7 42.7h17.1c23.6 0 42.7-19.1 42.7-42.7v-58.2c0-7.1-1.2-14-3.5-20.6l-11.6-33.1zM149.3 362.7c-17.7 0-32-14.3-32-32s14.3-32 32-32 32 14.3 32 32-14.3 32-32 32zm213.3 0c-17.7 0-32-14.3-32-32s14.3-32 32-32 32 14.3 32 32-14.3 32-32 32z" fill="#3b82f6"/>
  
  <!-- Wrench/Gear Accent -->
  <path d="M256 128l-20 40h40l-20-40z" fill="#f59e0b"/>
</svg>
